# xmcd
#
# Track frame offsets: 
#        150
#        25494
#        48201
#        76635
#        102552
#        128022
#        150859
#
# Disc length: 2323 seconds
#
# Revision: 0
# Processed by: cddbd v1.5.2PL0 Copyright (c) Steve Scherf et al.
# Submitted via: ExactAudioCopyFreeDBPlugin 1.0
#
DISCID=44091107
DTITLE=Enslaved - The Sleeping Gods - Thorn
DYEAR=2016
DGENRE=Black Metal
TTITLE0=Heimvegen
TTITLE1=Alu Misyrki
TTITLE2=Synthesis
TTITLE3=Nordlys
TTITLE4=The Sleeping Gods
TTITLE5=Disintegrator
TTITLE6=Striker
EXTD=
EXTT0=
EXTT1=
EXTT2=
EXTT3=
EXTT4=
EXTT5=
EXTT6=
PLAYORDER=
